<svg xmlns="http://www.w3.org/2000/svg" viewBox="0 0 32 32" fill="none">
  <rect width="32" height="32" rx="7" fill="url(#g)"/>
  <path d="M16 7.5c-4.7 0-8.5 3.8-8.5 8.5 0 2.8 1.4 5.4 3.6 6.9v-3.5c-.7-.8-1.1-1.9-1.1-3 0-2.7 2.2-4.9 5-4.9 2.7 0 4.9 2.2 4.9 4.9 0 1.2-.4 2.2-1.1 3v3.5c2.2-1.5 3.6-4.1 3.6-6.9 0-4.7-3.8-8.5-8.4-8.5z" fill="#fff"/>
  <circle cx="16" cy="16" r="2.3" fill="#fff"/>
  <defs>
    <linearGradient id="g" x1="0" y1="0" x2="32" y2="32" gradientUnits="userSpaceOnUse">
      <stop stop-color="#6366f1"/>
      <stop offset="1" stop-color="#8b5cf6"/>
    </linearGradient>
  </defs>
</svg>
